<?xml version="1.0" encoding="utf-8"?>
<!-- Generator: Adobe Illustrator 28.2.0, SVG Export Plug-In . SVG Version: 6.00 Build 0)  -->
<svg version="1.1" id="Layer_1" xmlns="http://www.w3.org/2000/svg" xmlns:xlink="http://www.w3.org/1999/xlink" x="0px" y="0px"
	 viewBox="0 0 4108 2349" style="enable-background:new 0 0 4108 2349;" xml:space="preserve">
<style type="text/css">
	.st0{fill:none;stroke:#000000;stroke-miterlimit:10;}
	.st1{fill:url(#SVGID_1_);stroke:#FF7BAC;stroke-width:5;stroke-miterlimit:10;}
	.st2{fill:url(#SVGID_00000112597392998736883610000011915806270567352456_);stroke:#FF7BAC;stroke-width:5;stroke-miterlimit:10;}
	.st3{fill:url(#SVGID_00000010304901033217147750000010228151632368194191_);stroke:#FF7BAC;stroke-width:5;stroke-miterlimit:10;}
	.st4{fill:url(#SVGID_00000132789320777126537300000005997335405891447203_);stroke:#FF7BAC;stroke-width:5;stroke-miterlimit:10;}
	.st5{fill:url(#SVGID_00000152969757520571847900000017121068220882793401_);stroke:#FF7BAC;stroke-width:5;stroke-miterlimit:10;}
	.st6{fill:url(#SVGID_00000004530413979704600090000014566386672306806428_);stroke:#FF7BAC;stroke-width:5;stroke-miterlimit:10;}
	.st7{fill:url(#SVGID_00000008862904057497435610000005266828130600377531_);stroke:#FF7BAC;stroke-width:5;stroke-miterlimit:10;}
	.st8{fill:url(#SVGID_00000067921133123995473350000017557132159826049683_);stroke:#000000;stroke-miterlimit:10;}
	.st9{fill:url(#SVGID_00000121267391585911099690000008865316482964927134_);stroke:#000000;stroke-miterlimit:10;}
	.st10{fill:url(#SVGID_00000110442702265496761900000016343469971950193842_);stroke:#000000;stroke-miterlimit:10;}
	.st11{fill:url(#SVGID_00000092426934498385558670000001048835253691986323_);stroke:#000000;stroke-miterlimit:10;}
	.st12{fill:#070404;stroke:#000000;stroke-miterlimit:10;}
	.st13{fill:#020000;stroke:#000000;stroke-miterlimit:10;}
	.st14{fill:#050404;stroke:#000000;stroke-miterlimit:10;}
	.st15{fill:#070303;stroke:#000000;stroke-miterlimit:10;}
	.st16{fill:#0C0101;stroke:#000000;stroke-miterlimit:10;}
	.st17{fill:url(#SVGID_00000119083951312065598530000000914597552045313445_);stroke:#000000;stroke-miterlimit:10;}
	.st18{fill:url(#SVGID_00000171698926296011688550000011703865221231521931_);stroke:#000000;stroke-miterlimit:10;}
	.st19{fill:url(#SVGID_00000060713878181541811530000016486288374862459524_);stroke:#000000;stroke-miterlimit:10;}
	.st20{fill:url(#SVGID_00000083774283528517591020000010264084674087487924_);stroke:#000000;stroke-miterlimit:10;}
	.st21{fill:url(#SVGID_00000067201300726264448130000004245732327994832518_);stroke:#000000;stroke-miterlimit:10;}
</style>
<g>
	<line class="st0" x1="-70.2" y1="79.5" x2="-70.5" y2="61.5"/>
</g>
<line class="st0" x1="-70.2" y1="79.5" x2="-81" y2="79.5"/>
<g>
	
		<linearGradient id="SVGID_1_" gradientUnits="userSpaceOnUse" x1="77.5" y1="1863.15" x2="157.8499" y2="1863.15" gradientTransform="matrix(1 0 0 -1 0 2350)">
		<stop  offset="0" style="stop-color:#879400"/>
		<stop  offset="0.5279" style="stop-color:#00D4CB"/>
		<stop  offset="0.7477" style="stop-color:#550036"/>
		<stop  offset="1" style="stop-color:#940008"/>
	</linearGradient>
	<path class="st1" d="M127.3,422l-22.2,4.2l-27.6,5.2l40.3,120.3l12.3-2l-22.2-71.2l12.5-2.7l24.6-5.3c10.1-6.2,15.2-16.9,11.8-27.6
		C153.2,431.3,141.1,423.2,127.3,422z M128.3,468.2c-13,2.4-26.3-4.5-29.7-15.4c-3.4-10.9,4.4-21.7,17.4-24.1s26.3,4.5,29.7,15.4
		S141.4,465.8,128.3,468.2z"/>
	
		<linearGradient id="SVGID_00000045602116423512190760000014775908344222288771_" gradientUnits="userSpaceOnUse" x1="161.7" y1="1876.95" x2="267.8" y2="1876.95" gradientTransform="matrix(1 0 0 -1 0 2350)">
		<stop  offset="0" style="stop-color:#879400"/>
		<stop  offset="0.5279" style="stop-color:#00D4CB"/>
		<stop  offset="0.7477" style="stop-color:#550036"/>
		<stop  offset="1" style="stop-color:#940008"/>
	</linearGradient>
	
		<polygon style="fill:url(#SVGID_00000045602116423512190760000014775908344222288771_);stroke:#FF7BAC;stroke-width:5;stroke-miterlimit:10;" points="
		265.2,508.3 267.8,516.8 195.6,530.1 193,521.5 161.7,418.7 175.2,416 205.7,519.2 	"/>
	
		<linearGradient id="SVGID_00000144303610790071681650000013672010933015936397_" gradientUnits="userSpaceOnUse" x1="350.2" y1="1919.95" x2="447.2" y2="1919.95" gradientTransform="matrix(1 0 0 -1 0 2350)">
		<stop  offset="0" style="stop-color:#879400"/>
		<stop  offset="0.5279" style="stop-color:#00D4CB"/>
		<stop  offset="0.7477" style="stop-color:#550036"/>
		<stop  offset="1" style="stop-color:#940008"/>
	</linearGradient>
	
		<polygon style="fill:url(#SVGID_00000144303610790071681650000013672010933015936397_);stroke:#FF7BAC;stroke-width:5;stroke-miterlimit:10;" points="
		447.2,378.2 405,385.7 435.5,486 417.3,489.4 414.1,478 388.9,388.5 352.5,395 350.2,387.4 386.8,380.8 402.7,378 443.3,370.7 	"/>
	
		<linearGradient id="SVGID_00000086690879077410833300000008976307443718267825_" gradientUnits="userSpaceOnUse" x1="270.2" y1="1894.2" x2="388.7" y2="1894.2" gradientTransform="matrix(1 0 0 -1 0 2350)">
		<stop  offset="0" style="stop-color:#879400"/>
		<stop  offset="0.5279" style="stop-color:#00D4CB"/>
		<stop  offset="0.7477" style="stop-color:#550036"/>
		<stop  offset="1" style="stop-color:#940008"/>
	</linearGradient>
	
		<path style="fill:url(#SVGID_00000086690879077410833300000008976307443718267825_);stroke:#FF7BAC;stroke-width:5;stroke-miterlimit:10;" d="
		M368.3,472.1l-9.4-10.1l-37.4-40.2L297,395.4l-18,3.3l-2.2,29.7l-3.6,47.9l-0.9,11.7l-2.1,28.2L289,513l2.1-28l56.6-9.4l21.6,21.9
		l19.4-3.5L368.3,472.1z M291.9,473.2l3.5-47.5l2.5-0.4l39.8,40.3L291.9,473.2z"/>
	
		<linearGradient id="SVGID_00000121981657119682620080000017380019232176598967_" gradientUnits="userSpaceOnUse" x1="452.8" y1="1936.15" x2="580.4" y2="1936.15" gradientTransform="matrix(1 0 0 -1 0 2350)">
		<stop  offset="0" style="stop-color:#879400"/>
		<stop  offset="0.5279" style="stop-color:#00D4CB"/>
		<stop  offset="0.7477" style="stop-color:#550036"/>
		<stop  offset="1" style="stop-color:#940008"/>
	</linearGradient>
	
		<polygon style="fill:url(#SVGID_00000121981657119682620080000017380019232176598967_);stroke:#FF7BAC;stroke-width:5;stroke-miterlimit:10;" points="
		546.4,349.7 580.4,459.5 553.4,464.5 548.9,449.9 546.4,450.2 499.6,402.7 499.1,401.1 498.2,401.2 477.5,380.2 483.6,403.9 
		497.4,457 501.7,473.7 479.8,478 475.4,460.1 462.7,407.8 455.7,378.8 452.8,366.9 484.5,361 488.7,365.3 497.9,374.5 520.6,397.1 
		538,414.6 538.8,415.4 536,408.3 519.4,354.6 	"/>
	
		<linearGradient id="SVGID_00000037682422116167308170000006952972365242387356_" gradientUnits="userSpaceOnUse" x1="559.6999" y1="1957.35" x2="678.8" y2="1957.35" gradientTransform="matrix(1 0 0 -1 0 2350)">
		<stop  offset="0" style="stop-color:#879400"/>
		<stop  offset="0.5279" style="stop-color:#00D4CB"/>
		<stop  offset="0.7477" style="stop-color:#550036"/>
		<stop  offset="1" style="stop-color:#940008"/>
	</linearGradient>
	
		<path style="fill:url(#SVGID_00000037682422116167308170000006952972365242387356_);stroke:#FF7BAC;stroke-width:5;stroke-miterlimit:10;" d="
		M678.8,434c-2.6,2.9-5.5,5.6-8.7,8.1l-10.9,2.2l-39.7,7.9l-10.4,2.1c-4.3-0.9-8.4-2.2-12.5-3.8l-4.4-11.2l0.6-0.1l-13-36.8
		l-20.1-56.8l23-4l17.4,52.3l1.7,5.1l8.8,26.4l3.5,10.5l0.4,1.1l26.5-4.9c0.1-0.2,0.2-0.3,0.2-0.5l12.4-2L639.7,393l-9.3-24.7
		l-11-33.1l24.3-4.2l18,52.8l1.9,5.5l12.6,36.9l2.3,6.8L678.8,434z"/>
	<g>
		
			<linearGradient id="SVGID_00000113315051173288979170000008800708992125937063_" gradientUnits="userSpaceOnUse" x1="652.6" y1="1974.55" x2="802" y2="1974.55" gradientTransform="matrix(1 0 0 -1 0 2350)">
			<stop  offset="0" style="stop-color:#879400"/>
			<stop  offset="0.5279" style="stop-color:#00D4CB"/>
			<stop  offset="0.7477" style="stop-color:#550036"/>
			<stop  offset="1" style="stop-color:#940008"/>
		</linearGradient>
		
			<polygon style="fill:url(#SVGID_00000113315051173288979170000008800708992125937063_);stroke:#FF7BAC;stroke-width:5;stroke-miterlimit:10;" points="
			802,418.5 783,422 764.9,373.1 759.4,425.8 759.3,426.5 755.3,427.2 750.7,428.1 737.4,430.6 736.3,430.8 684.5,379.1 703.7,437 
			686.8,440.1 660.4,355.1 652.6,329.9 663.6,328 738.3,404.2 741.2,314.6 762.8,310.8 764,314 769.6,329.3 		"/>
	</g>
</g>
<g>
	
		<linearGradient id="SVGID_00000114067942584970915040000014374983129871065763_" gradientUnits="userSpaceOnUse" x1="97.9764" y1="2051.2795" x2="635.9" y2="2051.2795" gradientTransform="matrix(1 0 0 -1 0 2350)">
		<stop  offset="0" style="stop-color:#945F00"/>
		<stop  offset="0.9413" style="stop-color:#940094"/>
		<stop  offset="0.9637" style="stop-color:#000FE9"/>
	</linearGradient>
	<path style="fill:url(#SVGID_00000114067942584970915040000014374983129871065763_);stroke:#000000;stroke-miterlimit:10;" d="
		M635.9,273.5L611,280c-172.2-95.6-378.7-104.9-462-20.5c-38.8,39.3-44,92.1-21.3,146.9l-15.6,4.1C87.9,351.2,94,293.8,136.6,250.7
		c90.2-91.4,309.5-83.6,489.9,17.4C629.7,269.9,632.8,271.7,635.9,273.5z"/>
	
		<linearGradient id="SVGID_00000096776719154830140990000009489991788368249249_" gradientUnits="userSpaceOnUse" x1="129.9586" y1="2039.2369" x2="577.4" y2="2039.2369" gradientTransform="matrix(1 0 0 -1 0 2350)">
		<stop  offset="0" style="stop-color:#945F00"/>
		<stop  offset="0.9413" style="stop-color:#940094"/>
		<stop  offset="0.9637" style="stop-color:#000FE9"/>
	</linearGradient>
	<path style="fill:url(#SVGID_00000096776719154830140990000009489991788368249249_);stroke:#000000;stroke-miterlimit:10;" d="
		M577.4,291.8l-22.3,5.8c-149-75.8-313.7-87.1-379.8-22.8c-33,32.1-35.6,77.3-13.2,125.7l-14.3,3.7
		c-26.5-54.1-24.4-105.1,12.5-141.1C233.5,191.9,416.6,205.5,577.4,291.8z"/>
	<g>
		
			<linearGradient id="SVGID_00000134972232407435143800000014682994701292831146_" gradientUnits="userSpaceOnUse" x1="213.9" y1="1802.1256" x2="777.9982" y2="1802.1256" gradientTransform="matrix(1 0 0 -1 0 2350)">
			<stop  offset="0" style="stop-color:#945F00"/>
			<stop  offset="0.9413" style="stop-color:#940094"/>
			<stop  offset="0.9637" style="stop-color:#000FE9"/>
		</linearGradient>
		<path style="fill:url(#SVGID_00000134972232407435143800000014682994701292831146_);stroke:#000000;stroke-miterlimit:10;" d="
			M736.6,602.6c-92.9,89.7-311.9,78.1-489.2-26.1c-11.6-6.8-22.8-13.9-33.5-21.2l20.2-4.5c7.7,5,15.6,9.9,23.8,14.7
			c169.7,99.6,377.1,113,463.2,29.7c42.7-41.3,47.6-98.6,20.9-158l19.7-4.4C789,496.3,782.9,557.9,736.6,602.6z"/>
		
			<linearGradient id="SVGID_00000022541741924239954380000008712498774642419895_" gradientUnits="userSpaceOnUse" x1="264.7" y1="1809.188" x2="739.2455" y2="1809.188" gradientTransform="matrix(1 0 0 -1 0 2350)">
			<stop  offset="0" style="stop-color:#945F00"/>
			<stop  offset="0.9413" style="stop-color:#940094"/>
			<stop  offset="0.9637" style="stop-color:#000FE9"/>
		</linearGradient>
		<path style="fill:url(#SVGID_00000022541741924239954380000008712498774642419895_);stroke:#000000;stroke-miterlimit:10;" d="
			M706.7,595.5c-78.5,72.9-273.9,51.4-436.5-48c-1.8-1.1-3.7-2.3-5.5-3.4l15-3.4c153.9,93.9,337.7,115.2,410.6,47.6
			c37.6-34.9,38.4-86.6,9.3-141.4l18.1-4C748.6,501.7,747.4,557.6,706.7,595.5z"/>
	</g>
</g>
<path class="st0" d="M2371.1,231.4c6.2-4.3,12.6-8.4,19.1-12.4C2384.7,225.2,2378.2,229.5,2371.1,231.4z"/>
<line class="st0" x1="2353.5" y1="200.5" x2="2338.7" y2="203.5"/>
<line class="st0" x1="2326.9" y1="205.8" x2="2318.5" y2="207.5"/>
<line class="st0" x1="2591.1" y1="34.8" x2="2588.5" y2="19.5"/>
<line class="st0" x1="2539.7" y1="41.8" x2="2535.5" y2="14.5"/>
<line class="st0" x1="2578.7" y1="36.2" x2="2573.5" y2="10.5"/>
<line class="st0" x1="2529.1" y1="43.8" x2="2526.5" y2="25.5"/>
<path class="st0" d="M2769.3,40c-5.1-0.8-10.3-1.6-15.4-2.2c1.2-0.2,2.4-0.2,3.7-0.2C2761.6,37.5,2765.6,38.4,2769.3,40z"/>
<g>
	<path class="st12" d="M333.3,269.3h-0.1c-9.5,1.4-15.7,13.3-13.9,26.6c1.9,13.3,11.2,23,20.8,21.7c9.6-1.4,15.8-13.3,13.9-26.6
		S342.8,268,333.3,269.3z M339.5,317.1c-6.8,1-13.9-8.7-15.7-21.7c-1.8-12.9,2.2-24.2,9.1-25.2c6.8-1,13.9,8.7,15.7,21.7
		C350.4,304.9,346.4,316.2,339.5,317.1z"/>
	<path class="st13" d="M275.2,323.8c0,7.6-3,14.4-8.5,18.1c-1.3,0.7-2.6,1.3-3.9,2c-10.5,3.7-23-3.5-28.3-16.3
		c-0.1-0.2-0.2-0.5-0.3-0.7c-5-12.9-0.8-26.6,9.6-30.8c5.9-2.4,12.4-1.2,18.1,2.5l-2.4,2.8c-4.6-3.1-9.8-4.1-14.4-2.2
		c-8.4,3.4-11.6,15.2-7.2,26.5c0.1,0.2,0.2,0.4,0.3,0.6c4.8,11.5,15.6,18.1,24.2,14.6c6.2-2.5,9.5-9.4,9.2-17.4L275.2,323.8z"/>
	<path class="st14" d="M441.7,315.8l-24.6,3.5c-0.7-0.1-1.4-0.2-2-0.3l-0.7-5.7l-5.2-45.8c2.5,0.2,5,0.5,7.5,0.8l4.3,43.9l19.3-3.3
		L441.7,315.8z"/>
	<path class="st15" d="M228.5,345.8l0.1,0.4c1.2,9.1-0.7,17.5-4.6,23.3c-2.7,2.2-5.3,4.4-7.8,6.7c-1.1,0.5-2.3,0.8-3.6,1
		c-6.7,0.9-13.3-2.9-17.9-9.5l5.1-1.8c3.4,4,7.6,6.2,11.9,5.5c8.1-1.2,13.4-11.9,12-24.1l-29.6,7l-4.9,1.2c-0.3-1.3-0.6-2.7-0.8-4.1
		c0-0.2-0.1-0.4-0.1-0.6c-2-15.5,5.2-29.2,16.1-30.7c7-1,13.9,3.2,18.6,10.5l-5.1,1.7c-3.5-4.5-8-7.1-12.7-6.4
		c-8.1,1.1-13.3,11.7-12,23.8l29.5-7.3l4.9-1.2C228,342.6,228.3,344.2,228.5,345.8z"/>
	<path class="st16" d="M318.5,323.1c-1.3,0.3-2.7,0.7-4,1l-8.2-22.6l-17.9,7.3l6.5,21.3c-1.7,0.6-3.4,1.2-5.1,1.9l-6.2-21.2l0.1-0.1
		l-1.7-5.5l-0.9-3l-5.6-19.1c1.5-0.5,3.1-1,4.6-1.5l6.7,21.9l18-6.4l-7.4-20.6c1.8-0.5,3.7-0.9,5.5-1.4l6.6,20.3l1.4,4.2
		L318.5,323.1z"/>
	<path class="st12" d="M383.4,266.1L383.4,266.1c-2.4,0-4.7,0-7.1,0l0,0c-9,2.5-14.7,14.2-12.8,27.2c2,13.8,11.6,23.9,21.6,22.4
		c9.9-1.4,16.4-13.7,14.5-27.5C397.9,276.9,391.2,268.2,383.4,266.1z M384.9,314c-6.8,1-13.9-8.7-15.7-21.7
		c-1.8-12.9,2.2-24.2,9.1-25.2c6.8-1,13.9,8.7,15.7,21.7C395.8,301.8,391.7,313.1,384.9,314z"/>
</g>
<line class="st0" x1="2825.5" y1="28.5" x2="2824.9" y2="51.1"/>
<line class="st0" x1="2842.5" y1="19.5" x2="2841" y2="55.2"/>
<line class="st0" x1="2880.5" y1="152.5" x2="2879.7" y2="152.5"/>
<line class="st0" x1="2879.7" y1="152.5" x2="2878.5" y2="136.5"/>
<g>
	
		<linearGradient id="SVGID_00000142142699743069699700000005301648264113508239_" gradientUnits="userSpaceOnUse" x1="398.8451" y1="1773.45" x2="440.5577" y2="1773.45" gradientTransform="matrix(1 0 0 -1 0 2350)">
		<stop  offset="0" style="stop-color:#E9D000"/>
		<stop  offset="1" style="stop-color:#95FF15"/>
	</linearGradient>
	
		<polygon style="fill:url(#SVGID_00000142142699743069699700000005301648264113508239_);stroke:#000000;stroke-miterlimit:10;" points="
		440.6,574.2 428.5,582.7 428.7,597.4 416.9,588.6 402.9,593.3 407.6,579.3 398.8,567.5 413.6,567.7 422.1,555.7 426.5,569.8 	"/>
	
		<linearGradient id="SVGID_00000055680911426641024200000011410321393246887102_" gradientUnits="userSpaceOnUse" x1="452.5" y1="1763.5" x2="496" y2="1763.5" gradientTransform="matrix(1 0 0 -1 0 2350)">
		<stop  offset="0" style="stop-color:#E9D000"/>
		<stop  offset="1" style="stop-color:#95FF15"/>
	</linearGradient>
	
		<polygon style="fill:url(#SVGID_00000055680911426641024200000011410321393246887102_);stroke:#000000;stroke-miterlimit:10;" points="
		494.1,602.2 478.8,598.4 467.2,608.9 466,593.2 452.5,585.3 467,579.4 470.3,564.1 480.4,576.1 496,574.5 487.8,587.8 	"/>
	
		<linearGradient id="SVGID_00000033357880431758696880000009881345378396764087_" gradientUnits="userSpaceOnUse" x1="509.4" y1="1773.55" x2="601.3" y2="1773.55" gradientTransform="matrix(1 0 0 -1 0 2350)">
		<stop  offset="0" style="stop-color:#E9D000"/>
		<stop  offset="1" style="stop-color:#95FF15"/>
	</linearGradient>
	
		<polygon style="fill:url(#SVGID_00000033357880431758696880000009881345378396764087_);stroke:#000000;stroke-miterlimit:10;" points="
		601.3,603.2 568.2,599.4 545.4,625 539.8,591.7 509.4,578.4 539.1,561.7 543.1,527.9 567,550.9 599.9,543.3 585,574.1 	"/>
	
		<linearGradient id="SVGID_00000039117276873369223180000008245108112584899000_" gradientUnits="userSpaceOnUse" x1="614.8" y1="1808.9" x2="660.2" y2="1808.9" gradientTransform="matrix(1 0 0 -1 0 2350)">
		<stop  offset="0" style="stop-color:#E9D000"/>
		<stop  offset="1" style="stop-color:#95FF15"/>
	</linearGradient>
	
		<polygon style="fill:url(#SVGID_00000039117276873369223180000008245108112584899000_);stroke:#000000;stroke-miterlimit:10;" points="
		660.2,552 644.5,550.1 637.2,559.4 630.4,546.8 614.8,541.3 626.3,535.4 623.9,522.8 637.8,531.8 651.9,529.4 649,540.8 	"/>
	
		<linearGradient id="SVGID_00000002363874950879158280000017373558115492816545_" gradientUnits="userSpaceOnUse" x1="650.5" y1="1843.4" x2="691.4" y2="1843.4" gradientTransform="matrix(1 0 0 -1 0 2350)">
		<stop  offset="0" style="stop-color:#E9D000"/>
		<stop  offset="1" style="stop-color:#95FF15"/>
	</linearGradient>
	
		<polygon style="fill:url(#SVGID_00000002363874950879158280000017373558115492816545_);stroke:#000000;stroke-miterlimit:10;" points="
		691.4,507.4 677.9,512.4 675.1,525 665.2,515.3 650.5,516.7 658,505.7 651.7,494 666.1,496.9 676.9,488.2 678.4,501 	"/>
</g>
</svg>
